# xmcd
#
# Track frame offsets:
#	150
#	15964
#	36543
#	56189
#	72152
#	89964
#	109356
#	124325
#	138722
#	158950
#
# Disc length: 2326 seconds
#
# Revision: 1
# Processed by: cddbd v1.5.2PL0 Copyright (c) Steve Scherf et al.
# Submitted via: audiograbber 1.81.03
#
DISCID=9b09140a
DTITLE=David`Gogo - Acoustic Official Bootleg Series Volume Two
DYEAR=2006
DGENRE=Country
TTITLE0=It's Killing Me
TTITLE1=Dust My Broom
TTITLE2=Intertidal Zone
TTITLE3=Years Since Yesterday
TTITLE4=As The Crow Flies
TTITLE5=She's Breaking Through
TTITLE6=All I Can Do
TTITLE7=Ya Got Me Walking Tall
TTITLE8=Once It's Gone
TTITLE9=That's How Strong My Love Is
EXTD=
EXTT0=
EXTT1=
EXTT2=
EXTT3=
EXTT4=
EXTT5=
EXTT6=
EXTT7=
EXTT8=
EXTT9=
PLAYORDER=
